<?xml version="1.0" encoding="UTF-8" standalone="no"?>
<svg
   height="100.29529"
   viewBox="0 0 100.29529 100.29529"
   width="100.29529"
   version="1.1"
   id="svg14"
   sodipodi:docname="logo_path_only_first_a_and_background.svg"
   inkscape:version="1.1.2 (0a00cf5339, 2022-02-04)"
   xmlns:inkscape="http://www.inkscape.org/namespaces/inkscape"
   xmlns:sodipodi="http://sodipodi.sourceforge.net/DTD/sodipodi-0.dtd"
   xmlns="http://www.w3.org/2000/svg"
   xmlns:svg="http://www.w3.org/2000/svg">
  <defs
     id="defs18" />
  <sodipodi:namedview
     id="namedview16"
     pagecolor="#ffffff"
     bordercolor="#666666"
     borderopacity="1.0"
     inkscape:pageshadow="2"
     inkscape:pageopacity="0.0"
     inkscape:pagecheckerboard="0"
     showgrid="false"
     inkscape:zoom="4.46"
     inkscape:cx="104.4843"
     inkscape:cy="51.233184"
     inkscape:window-width="1850"
     inkscape:window-height="1016"
     inkscape:window-x="70"
     inkscape:window-y="27"
     inkscape:window-maximized="1"
     inkscape:current-layer="svg14" />
  <style
     type="text/css"
     id="style2">
    
        path.middle {
            fill:#316cc4;fill-opacity:1
        }
        path.contour {
            stroke:#ffffff;stroke-width:10.93687725;stroke-miterlimit:10;stroke-dasharray:none;stroke-opacity:1
        }

    
    </style>
  <rect
     style="fill:#d8e7ec;fill-opacity:1;fill-rule:evenodd"
     id="rect42"
     width="100.29529"
     height="100.29529"
     x="0"
     y="0" />
  <g
     transform="translate(13.718748,-958.9988)"
     id="g12">
    <g
       id="g6">
      <path
         class="contour"
         d="m 37.8089,1034.3564 q 4.331003,0 7.612067,-0.1312 3.412306,-0.2625 5.643429,-0.7875 v -20.3426 q -1.312425,-0.6562 -4.331004,-1.0499 -2.887336,-0.525 -7.087097,-0.525 -2.756093,0 -5.905914,0.3937 -3.018579,0.3938 -5.643429,1.7062 -2.493609,1.1812 -4.199762,3.4123 -1.706153,2.0999 -1.706153,5.6434 0,6.5621 4.199762,9.187 4.199761,2.4936 11.418101,2.4936 z m -1.049941,-61.15901 q 7.349582,0 12.336799,1.96863 5.118459,1.8374 8.137037,5.38095 3.149821,3.4123 4.462247,8.26828 1.312425,4.72473 1.312425,10.4994 v 42.65385 q -1.574911,0.2625 -4.462246,0.7874 -2.756094,0.3938 -6.299642,0.7875 -3.543549,0.3937 -7.74331,0.6562 -4.068519,0.3937 -8.137037,0.3937 -5.774672,0 -10.630646,-1.1812 -4.855974,-1.1811 -8.399522,-3.6747 -3.543549,-2.6249 -5.512187,-6.8247 -1.9686381,-4.1997 -1.9686381,-10.1056 0,-5.6435 2.2311231,-9.712 2.362366,-4.0685 6.299642,-6.5621 3.937276,-2.4936 9.186978,-3.6748 5.249701,-1.1812 11.024373,-1.1812 1.837395,0 3.806033,0.2625 1.968638,0.1312 3.674791,0.525 1.837396,0.2625 3.149821,0.5249 1.312426,0.2625 1.837396,0.3938 v -3.41234 q 0,-3.01858 -0.656213,-5.90591 -0.656212,-3.01858 -2.362365,-5.2497 -1.706153,-2.36237 -4.724732,-3.67479 -2.887336,-1.44367 -7.612067,-1.44367 -6.037157,0 -10.630646,0.9187 -4.462246,0.78745 -6.693369,1.70615 l -1.443668,-10.10568 q 2.362366,-1.04994 7.874552,-1.96863 5.512187,-1.04994 11.943071,-1.04994 z"
         id="path4" />
    </g>
    <g
       id="g10">
      <path
         class="middle"
         d="m 36.767301,1033.3148 q 4.331004,0 7.612067,-0.1313 3.412306,-0.2624 5.643429,-0.7874 v -20.3426 q -1.312425,-0.6562 -4.331003,-1.0499 -2.887336,-0.525 -7.087097,-0.525 -2.756094,0 -5.905915,0.3937 -3.018578,0.3937 -5.643429,1.7062 -2.493608,1.1811 -4.199761,3.4123 -1.706153,2.0998 -1.706153,5.6434 0,6.5621 4.199761,9.187 4.199761,2.4936 11.418101,2.4936 z m -1.04994,-61.15904 q 7.349582,0 12.336798,1.96864 5.118459,1.83739 8.137038,5.38094 3.149821,3.41231 4.462246,8.26828 1.312425,4.72473 1.312425,10.4994 v 42.65378 q -1.57491,0.2625 -4.462246,0.7875 -2.756093,0.3937 -6.299642,0.7875 -3.543548,0.3937 -7.74331,0.6562 -4.068518,0.3937 -8.137037,0.3937 -5.774672,0 -10.630646,-1.1812 -4.855973,-1.1812 -8.399522,-3.6748 -3.543549,-2.6248 -5.512187,-6.8246 -1.9686377,-4.1997 -1.9686377,-10.1057 0,-5.6434 2.2311227,-9.7119 2.362366,-4.0685 6.299642,-6.5621 3.937276,-2.4936 9.186978,-3.6748 5.249702,-1.1812 11.024373,-1.1812 1.837396,0 3.806034,0.2625 1.968638,0.1312 3.674791,0.5249 1.837395,0.2625 3.149821,0.525 1.312425,0.2625 1.837395,0.3937 v -3.41226 q 0,-3.01858 -0.656212,-5.90592 -0.656213,-3.01858 -2.362366,-5.2497 -1.706153,-2.36236 -4.724731,-3.67479 -2.887336,-1.44367 -7.612068,-1.44367 -6.037156,0 -10.630645,0.9187 -4.462247,0.78746 -6.69337,1.70615 l -1.443668,-10.10567 q 2.362366,-1.04994 7.874553,-1.96864 5.512186,-1.04994 11.943071,-1.04994 z"
         id="path8" />
    </g>
  </g>
</svg>
